<?xml version="1.0" encoding="utf-8"?>
<!-- Generator: Adobe Illustrator 18.1.1, SVG Export Plug-In . SVG Version: 6.00 Build 0)  -->
<svg version="1.1" id="Layer_1" xmlns="http://www.w3.org/2000/svg" xmlns:xlink="http://www.w3.org/1999/xlink" x="0px" y="0px"
	 viewBox="0 0 30 30" enable-background="new 0 0 30 30" xml:space="preserve">
<path fill="#ffffff" d="M15,3c6.6,0,12,5.4,12,12s-5.4,12-12,12S3,21.6,3,15S8.4,3,15,3 M15,0C6.7,0,0,6.7,0,15s6.7,15,15,15
	s15-6.7,15-15S23.3,0,15,0L15,0z"/>
<path fill="#ffffff" d="M18.2,15h-2.1c0,3.4,0,7.5,0,7.5H13c0,0,0-4.1,0-7.5h-1.5v-2.6H13v-1.7c0-1.2,0.6-3.1,3.1-3.1l2.3,0v2.6
	c0,0-1.4,0-1.7,0c-0.3,0-0.7,0.1-0.7,0.7v1.6h2.4L18.2,15z"/>
</svg>
