<?xml version="1.0" encoding="utf-8"?>
<!-- Generator: Adobe Illustrator 18.1.1, SVG Export Plug-In . SVG Version: 6.00 Build 0)  -->
<svg version="1.1" id="Layer_1" xmlns="http://www.w3.org/2000/svg" xmlns:xlink="http://www.w3.org/1999/xlink" x="0px" y="0px"
	 viewBox="0 0 30 30" enable-background="new 0 0 30 30" xml:space="preserve">
<path fill="#ffffff" d="M24,10h-4V6c0-3.3-2.7-6-6-6H6C2.7,0,0,2.7,0,6v8c0,3.3,2.7,6,6,6h4v4c0,3.3,2.7,6,6,6h8c3.3,0,6-2.7,6-6v-8
	C30,12.7,27.3,10,24,10z M6,17c-1.7,0-3-1.3-3-3V6c0-1.7,1.3-3,3-3h8c1.7,0,3,1.3,3,3v4h-1c-3.3,0-6,2.7-6,6v1H6z M17,13v1
	c0,1.7-1.3,3-3,3h-1v-1c0-1.7,1.3-3,3-3H17z M27,24c0,1.7-1.3,3-3,3h-8c-1.7,0-3-1.3-3-3v-4h1c3.3,0,6-2.7,6-6v-1h4c1.7,0,3,1.3,3,3
	V24z"/>
</svg>
