<?xml version="1.0" encoding="utf-8"?>
<!-- Generator: Adobe Illustrator 18.1.1, SVG Export Plug-In . SVG Version: 6.00 Build 0)  -->
<svg version="1.1" id="Layer_1" xmlns="http://www.w3.org/2000/svg" xmlns:xlink="http://www.w3.org/1999/xlink" x="0px" y="0px"
	 viewBox="0 0 30 30" enable-background="new 0 0 30 30" xml:space="preserve">
<g>
	<path fill="#ffffff" d="M15,3c6.6,0,12,5.4,12,12s-5.4,12-12,12S3,21.6,3,15S8.4,3,15,3 M15,0C6.7,0,0,6.7,0,15s6.7,15,15,15
		s15-6.7,15-15S23.3,0,15,0L15,0z"/>
	<path fill="#ffffff" d="M12.2,21.1c-1.7,0-3.4-0.5-4.7-1.4c0.2,0,0.5,0,0.7,0c1.4,0,2.8-0.5,3.8-1.3c-1.3,0-2.5-0.9-2.9-2.1
		c0.2,0,0.4,0.1,0.6,0.1c0.3,0,0.6,0,0.8-0.1c-1.4-0.3-2.5-1.5-2.5-3c0,0,0,0,0,0c0.4,0.2,0.9,0.4,1.4,0.4C8.7,13,8.1,12.1,8.1,11
		c0-0.6,0.2-1.1,0.4-1.5c1.5,1.9,3.8,3.1,6.3,3.2c-0.1-0.2-0.1-0.5-0.1-0.7c0-1.7,1.4-3.1,3.1-3.1c0.9,0,1.7,0.4,2.2,1
		c0.7-0.1,1.4-0.4,2-0.7c-0.2,0.7-0.7,1.3-1.4,1.7c0.6-0.1,1.2-0.2,1.8-0.5c-0.4,0.6-0.9,1.2-1.5,1.6c0,0.1,0,0.3,0,0.4
		C21,16.4,17.9,21.1,12.2,21.1"/>
</g>
</svg>
